PathFileType	4	(X/Y/Z)	C:/Users/beibeiliu/ov580/test_trc/User3\sequence.26_training_dense_right.trc
DataRate	CameraRate	NumFrames	NumMarkers	Units	OrigDataRate	OrigDataStartFrame	OrigNumFrames
120	120	8	19	mm	120	34	266
Frame#	Time	ThumbCMC			ThumbMCP			ThumbIP			ThumbTip			IndexMCP			IndexPIP			IndexTip			MiddleMCP			MiddlePIP			MiddleTip			RingMCP			RingPIP			RingTip			PinkyMCP			PinkyPIP			PinkyTip			BackHand1			BackHand2			BackHand3	
		X0	Y0	Z0	X1	Y1	Z1	X2	Y2	Z2	X3	Y3	Z3	X4	Y4	Z4	X5	Y5	Z5	X6	Y6	Z6	X7	Y7	Z7	X8	Y8	Z8	X9	Y9	Z9	X10	Y10	Z10	X11	Y11	Z11	X12	Y12	Z12	X13	Y13	Z13	X14	Y14	Z14	X15	Y15	Z15	X16	Y16	Z16	X17	Y17	Z17	X18	Y18	Z18	
33	0.275	168.18	9.02315	36.2633	154.12	8.19453	5.50145	154.565	6.01795	-26.1918	170.389	-1.46923	-50.8145	174.426	35.3498	-39.3095	166.752	31.8528	-62.1831	161.346	23.6781	-85.922	195.406	12.984	-45.0366	177.832	-1.21262	-68.9436	158.222	-25.6344	-80.6455	197.156	-13.853	-36.0516	178.821	-35.1357	-28.7646	173.272	-38.9546	2.2956	209.595	-23.5568	-27.5926	188.497	-36.5846	-15.4936	183.19	-25.1081	15.8214	227.159	16.3221	8.5017	229.139	9.56193	36.9027	197.473	28.3528	31.4843	
34	0.283333	170.484	11.4051	33.8372	156.142	13.0905	2.41822	158.21	10.2583	-23.7517	168.662	4.2196	-51.55	180.588	35.3166	-37.9174	166.871	36.4284	-65.0927	161.844	30.5447	-85.5153	191.273	18.6324	-48.679	179.393	4.28612	-68.7313	158.745	-22.3269	-84.4049	197.444	-7.6806	-36.2018	179.766	-30.104	-31.7786	167.823	-32.9017	2.64182	209.675	-20.7174	-27.9105	187.711	-32.7008	-16.209	180.678	-20.7493	9.8892	228.107	13.6409	9.57101	229.397	7.88277	40.0791	199.771	29.6873	28.6214	
35	0.291667	171.147	12.3656	36.8571	158.165	16.8724	1.06439	156.999	15.5401	-27.445	172.134	7.27391	-47.6583	177.921	42.9642	-39.3854	172.207	38.9611	-61.0164	161.83	38.3698	-84.5056	193.934	21.7205	-50.228	180.58	8.8035	-71.0328	163.41	-14.2224	-87.8702	201.075	-5.37059	-36.5068	175.518	-26.1012	-32.406	168.988	-32.496	1.24056	207.915	-17.774	-30.5903	188.323	-27.2938	-20.8612	181.614	-17.3914	8.27687	227.239	19.6835	9.55931	230.919	8.75711	41.8657	203.892	30.8304	29.8294	
36	0.3	171.45	16.0072	33.2392	158.798	17.035	3.86947	161.856	19.2925	-31.316	174.834	10.2204	-49.7002	182.211	45.7198	-37.7742	170.535	47.7992	-60.1785	165.661	43.8193	-83.7559	191.932	28.5891	-48.5924	181.38	15.5736	-69.575	159.945	-3.89384	-91.7007	200.32	0.76899	-37.1029	177.295	-23.0225	-33.1463	168.387	-28.9328	-2.54671	212.792	-14.1677	-29.4231	185.568	-25.6587	-17.5226	180.06	-16.8327	5.18187	226.61	20.4438	9.25493	229.897	13.4685	37.1121	203.058	32.0808	33.1512	
37	0.308333	171.771	13.5487	35.9391	157.164	19.0606	2.94479	163.084	21.4263	-32.4685	180.243	11.9957	-49.4187	181.648	49.9808	-33.9458	174.367	52.8834	-58.1676	162.677	55.6248	-82.8184	195.096	32.3886	-47.8625	184.265	20.3571	-70.6707	165.751	2.65422	-93.634	202.03	5.48033	-38.0942	178.668	-19.4513	-34.9492	168.493	-27.5674	-7.83256	212.151	-11.1781	-30.8042	188.246	-22.7901	-18.6525	183.166	-13.6948	8.38	229.197	23.8296	11.0495	233.721	13.8785	36.9127	202.448	35.5108	29.2195	
38	0.316667	170.973	14.2519	36.2271	158.619	19.937	2.55682	165.535	22.9177	-31.3891	181.002	13.7369	-47.8427	180.462	53.5121	-36.5944	171.141	58.2265	-58.7598	164.229	58.9032	-83.8028	198.147	34.2463	-46.6053	183.493	27.1013	-69.4135	165.804	11.6662	-96.0495	199.286	7.53944	-39.3355	183.967	-16.2603	-39.2741	170.179	-27.4263	-10.2882	214.879	-5.44423	-30.8812	194.733	-22.1318	-22.8371	186.508	-16.5418	4.69064	227.545	25.2371	11.0237	230.377	16.8142	37.7901	203.069	37.0064	31.0796	
39	0.325	167.835	14.9786	35.1976	162.382	20.9375	-1.36387	170.837	21.4945	-30.2689	184.365	13.084	-47.0643	179.647	52.8442	-30.9057	171.155	58.6551	-55.377	164.469	61.7711	-81.4387	195.553	37.0478	-48.2482	185.924	26.3326	-72.9226	171.579	10.7649	-97.8775	203.128	5.20456	-40.3355	184.06	-16.8397	-38.7055	172.874	-28.2465	-9.05196	214.361	-2.92458	-31.634	194.49	-22.2088	-22.0389	189.466	-17.1663	7.54378	230.626	25.3259	9.90772	233.03	13.7463	40.1972	201.43	37.7372	31.3202	
40	0.333333	170.517	15.4567	32.0028	163.127	17.2042	-0.570237	169.321	18.2141	-31.4591	188.396	11.6996	-47.7825	181.858	51.7181	-33.5388	176.432	53.7537	-58.2797	169.516	57.7313	-86.0706	202.194	32.4419	-47.8026	189.263	24.6517	-69.6151	175.096	9.03671	-97.9393	209.156	4.26976	-37.5563	187.577	-19.0361	-38.7179	177.685	-32.6413	-10.9443	219.43	-9.57079	-31.5567	197.77	-25.8003	-21.1864	192.266	-21.7836	7.14573	229.797	25.2184	9.74802	234.216	15.2155	40.1422	204.398	32.9336	30.2631	
